<?xml version="1.0" standalone="no"?><!DOCTYPE svg PUBLIC "-//W3C//DTD SVG 1.1//EN"
    "http://www.w3.org/Graphics/SVG/1.1/DTD/svg11.dtd">
<svg class="icon" viewBox="0 0 1024 1024" version="1.1" xmlns="http://www.w3.org/2000/svg"
     xmlns:xlink="http://www.w3.org/1999/xlink" width="128" height="128">
    <path
        d="M511.202 60.769c-247.527 0-448.186 200.66-448.186 448.186S263.676 957.14 511.202 957.14s448.186-200.66 448.186-448.185S758.728 60.769 511.202 60.769z m164.24 368.88c-9.03 0-17.72-1.444-25.872-4.085l-90.319 157.49c19.252 18.273 31.257 44.106 31.257 72.744 0 55.385-44.899 100.284-100.284 100.284-55.385 0-100.284-44.899-100.284-100.284 0-24.721 8.95-47.348 23.78-64.83l-56.132-51.286a65.2 65.2 0 0 1-29.046 6.793c-36.17 0-65.492-29.322-65.492-65.491 0-36.17 29.322-65.492 65.492-65.492s65.491 29.322 65.491 65.492a65.184 65.184 0 0 1-12.727 38.785l55.786 50.97c15.406-9.644 33.616-15.225 53.132-15.225 15.665 0 30.49 3.594 43.698 9.999l88.67-154.615c-18.945-15.385-31.06-38.855-31.06-65.162 0-46.342 37.569-83.91 83.911-83.91s83.912 37.568 83.912 83.91-37.569 83.912-83.913 83.912z"
        fill="#3B82F6"
    />
</svg>